<svg width="242" height="166" viewBox="0 0 242 166" fill="none" xmlns="http://www.w3.org/2000/svg">
<rect x="0.5" y="0.5" width="241" height="165" rx="11.5" fill="#FF3969"/>
<rect x="0.5" y="0.5" width="241" height="165" rx="11.5" stroke="#FF3969"/>
<path d="M119.756 81H110.604V72.168H89.164V65.064L109.516 38.12H119.756V64.232H126.348V72.168H119.756V81ZM98.892 64.232H110.604V48.936L98.892 64.232ZM144.71 70.504H137.606V63.08H130.182V55.976H137.606V48.616H144.71V55.976H152.07V63.08H144.71V70.504Z" fill="white"/>
<path d="M85.9111 116.432C85.9111 117.328 85.6951 118.168 85.2631 118.952C84.8471 119.736 84.1831 120.368 83.2711 120.848C82.3751 121.328 81.2391 121.568 79.8631 121.568H77.0551V128H73.6951V111.248H79.8631C81.1591 111.248 82.2631 111.472 83.1751 111.92C84.0871 112.368 84.7671 112.984 85.2151 113.768C85.6791 114.552 85.9111 115.44 85.9111 116.432ZM79.7191 118.856C80.6471 118.856 81.3351 118.648 81.7831 118.232C82.2311 117.8 82.4551 117.2 82.4551 116.432C82.4551 114.8 81.5431 113.984 79.7191 113.984H77.0551V118.856H79.7191ZM91.6566 116.768C92.0886 116.064 92.6486 115.512 93.3366 115.112C94.0406 114.712 94.8406 114.512 95.7366 114.512V118.04H94.8486C93.7926 118.04 92.9926 118.288 92.4486 118.784C91.9206 119.28 91.6566 120.144 91.6566 121.376V128H88.2966V114.704H91.6566V116.768ZM103.904 128.216C102.624 128.216 101.472 127.936 100.448 127.376C99.4238 126.8 98.6158 125.992 98.0238 124.952C97.4478 123.912 97.1598 122.712 97.1598 121.352C97.1598 119.992 97.4558 118.792 98.0478 117.752C98.6558 116.712 99.4798 115.912 100.52 115.352C101.56 114.776 102.72 114.488 104 114.488C105.28 114.488 106.44 114.776 107.48 115.352C108.52 115.912 109.336 116.712 109.928 117.752C110.536 118.792 110.84 119.992 110.84 121.352C110.84 122.712 110.528 123.912 109.904 124.952C109.296 125.992 108.464 126.8 107.408 127.376C106.368 127.936 105.2 128.216 103.904 128.216ZM103.904 125.288C104.512 125.288 105.08 125.144 105.608 124.856C106.152 124.552 106.584 124.104 106.904 123.512C107.224 122.92 107.384 122.2 107.384 121.352C107.384 120.088 107.048 119.12 106.376 118.448C105.72 117.76 104.912 117.416 103.952 117.416C102.992 117.416 102.184 117.76 101.528 118.448C100.888 119.12 100.568 120.088 100.568 121.352C100.568 122.616 100.88 123.592 101.504 124.28C102.144 124.952 102.944 125.288 103.904 125.288ZM115.008 113.12C114.4 113.12 113.896 112.936 113.496 112.568C113.112 112.184 112.92 111.712 112.92 111.152C112.92 110.592 113.112 110.128 113.496 109.76C113.896 109.376 114.4 109.184 115.008 109.184C115.6 109.184 116.088 109.376 116.472 109.76C116.856 110.128 117.048 110.592 117.048 111.152C117.048 111.712 116.856 112.184 116.472 112.568C116.088 112.936 115.6 113.12 115.008 113.12ZM116.664 130.184C116.664 131.656 116.296 132.712 115.56 133.352C114.84 134.008 113.8 134.336 112.44 134.336H110.952V131.48H111.912C112.424 131.48 112.784 131.376 112.992 131.168C113.2 130.976 113.304 130.656 113.304 130.208V114.704H116.664V130.184ZM132.344 121.064C132.344 121.544 132.312 121.976 132.248 122.36H122.528C122.608 123.32 122.944 124.072 123.536 124.616C124.128 125.16 124.856 125.432 125.72 125.432C126.968 125.432 127.856 124.896 128.384 123.824H132.008C131.624 125.104 130.888 126.16 129.8 126.992C128.712 127.808 127.376 128.216 125.792 128.216C124.512 128.216 123.36 127.936 122.336 127.376C121.328 126.8 120.536 125.992 119.96 124.952C119.4 123.912 119.12 122.712 119.12 121.352C119.12 119.976 119.4 118.768 119.96 117.728C120.52 116.688 121.304 115.888 122.312 115.328C123.32 114.768 124.48 114.488 125.792 114.488C127.056 114.488 128.184 114.76 129.176 115.304C130.184 115.848 130.96 116.624 131.504 117.632C132.064 118.624 132.344 119.768 132.344 121.064ZM128.864 120.104C128.848 119.24 128.536 118.552 127.928 118.04C127.32 117.512 126.576 117.248 125.696 117.248C124.864 117.248 124.16 117.504 123.584 118.016C123.024 118.512 122.68 119.208 122.552 120.104H128.864ZM133.933 121.352C133.933 119.976 134.213 118.776 134.773 117.752C135.333 116.712 136.109 115.912 137.101 115.352C138.093 114.776 139.229 114.488 140.509 114.488C142.157 114.488 143.517 114.904 144.589 115.736C145.677 116.552 146.405 117.704 146.773 119.192H143.149C142.957 118.616 142.629 118.168 142.165 117.848C141.717 117.512 141.157 117.344 140.485 117.344C139.525 117.344 138.765 117.696 138.205 118.4C137.645 119.088 137.365 120.072 137.365 121.352C137.365 122.616 137.645 123.6 138.205 124.304C138.765 124.992 139.525 125.336 140.485 125.336C141.845 125.336 142.733 124.728 143.149 123.512H146.773C146.405 124.952 145.677 126.096 144.589 126.944C143.501 127.792 142.141 128.216 140.509 128.216C139.229 128.216 138.093 127.936 137.101 127.376C136.109 126.8 135.333 126 134.773 124.976C134.213 123.936 133.933 122.728 133.933 121.352ZM153.146 117.464V123.896C153.146 124.344 153.25 124.672 153.458 124.88C153.682 125.072 154.05 125.168 154.562 125.168H156.122V128H154.01C151.178 128 149.762 126.624 149.762 123.872V117.464H148.178V114.704H149.762V111.416H153.146V114.704H156.122V117.464H153.146ZM163.627 128.216C162.539 128.216 161.563 128.024 160.699 127.64C159.835 127.24 159.147 126.704 158.635 126.032C158.139 125.36 157.867 124.616 157.819 123.8H161.203C161.267 124.312 161.515 124.736 161.947 125.072C162.395 125.408 162.947 125.576 163.603 125.576C164.243 125.576 164.739 125.448 165.091 125.192C165.459 124.936 165.643 124.608 165.643 124.208C165.643 123.776 165.419 123.456 164.971 123.248C164.539 123.024 163.843 122.784 162.883 122.528C161.891 122.288 161.075 122.04 160.435 121.784C159.811 121.528 159.267 121.136 158.803 120.608C158.355 120.08 158.131 119.368 158.131 118.472C158.131 117.736 158.339 117.064 158.755 116.456C159.187 115.848 159.795 115.368 160.579 115.016C161.379 114.664 162.315 114.488 163.387 114.488C164.971 114.488 166.235 114.888 167.179 115.688C168.123 116.472 168.643 117.536 168.739 118.88H165.523C165.475 118.352 165.251 117.936 164.851 117.632C164.467 117.312 163.947 117.152 163.291 117.152C162.683 117.152 162.211 117.264 161.875 117.488C161.555 117.712 161.395 118.024 161.395 118.424C161.395 118.872 161.619 119.216 162.067 119.456C162.515 119.68 163.211 119.912 164.155 120.152C165.115 120.392 165.907 120.64 166.531 120.896C167.155 121.152 167.691 121.552 168.139 122.096C168.603 122.624 168.843 123.328 168.859 124.208C168.859 124.976 168.643 125.664 168.211 126.272C167.795 126.88 167.187 127.36 166.387 127.712C165.603 128.048 164.683 128.216 163.627 128.216Z" fill="white"/>
</svg>
